<svg width="120" height="30" viewBox="0 0 141 24" fill="none" xmlns="http://www.w3.org/2000/svg">
<path fill-rule="evenodd" clip-rule="evenodd" d="M94.4 18.2571L95.8857 5.60001C95.8857 5.40001 96.0572 5.25715 96.3429 5.22858H103.943C104.143 5.22858 104.314 5.37143 104.343 5.57143L105.829 18.2286C105.857 18.4571 105.657 18.6571 105.429 18.6571H102.657C102.457 18.6571 102.286 18.5143 102.257 18.3143L101.943 15.0571C101.914 14.8571 101.743 14.7143 101.543 14.7143H98.6857C98.4857 14.7143 98.3143 14.8571 98.2857 15.0571L97.9714 18.3429C97.9429 18.5429 97.7714 18.6857 97.5714 18.6857H94.8C94.5429 18.6857 94.3714 18.4857 94.4 18.2571ZM98.8572 8.91429L98.6572 11C98.6286 11.2286 98.8 11.4286 99.0572 11.4286H101.114C101.343 11.4286 101.543 11.2286 101.514 11L101.314 8.91429C101.286 8.71429 101.114 8.57143 100.914 8.57143H99.2572C99.0572 8.57143 98.8857 8.71429 98.8572 8.91429Z" fill="black"/>
<path fill-rule="evenodd" clip-rule="evenodd" d="M45.7714 5.14285C47.2571 5.14285 48.4286 5.31428 49.3143 5.68571C50.1714 6.02857 50.8571 6.71428 51.3143 7.68571C51.7714 8.65714 52 10.1143 52 11.9714C52 13.8286 51.7714 15.2571 51.3143 16.2571C50.8571 17.2286 50.1714 17.9143 49.3143 18.2571C48.4286 18.6286 47.2571 18.8 45.7714 18.8C44.3143 18.8 43.1143 18.6286 42.2286 18.2571C41.3428 17.9143 40.6857 17.2286 40.2286 16.2571C39.7714 15.2857 39.5428 13.8286 39.5428 11.9714C39.5428 10.1143 39.7714 8.65714 40.2286 7.68571C40.6857 6.71428 41.3714 6.02857 42.2286 5.68571C43.1143 5.31428 44.2857 5.14285 45.7714 5.14285ZM47.3428 15.4857C47.6857 15.2571 47.9428 14.8857 48.0857 14.3429C48.2286 13.8 48.3143 13.0286 48.2857 11.9714C48.2857 10.9143 48.2286 10.0857 48.0857 9.57142C47.9714 9.02857 47.7143 8.65714 47.3428 8.45714C47 8.25714 46.4571 8.17142 45.7714 8.17142C45.0857 8.17142 44.5428 8.25714 44.2 8.45714C43.8571 8.65714 43.6 9.02857 43.4571 9.57142C43.3143 10.0857 43.2571 10.8857 43.2571 11.9714C43.2571 13.0286 43.3143 13.8286 43.4571 14.3429C43.6 14.8857 43.8571 15.2857 44.2 15.4857C44.5428 15.6857 45.0857 15.8 45.7714 15.8C46.4571 15.8 47 15.6857 47.3428 15.4857Z" fill="black"/>
<path fill-rule="evenodd" clip-rule="evenodd" d="M53.6571 5.25714H60.7429C62.6857 5.25714 64.0571 5.85714 64.8286 7.05714C65.6 8.25714 66 9.91428 66 12.0286C66 14.3714 65.5714 16.0857 64.7143 17.1429C63.8571 18.2 62.5143 18.7429 60.7429 18.7429H54.7143C54.4857 18.7429 54.3143 18.5714 54.3143 18.3429V8.71428C54.3143 8.48571 54.1429 8.31428 53.9143 8.31428H53.6571C53.4286 8.31428 53.2571 8.14286 53.2571 7.91428V5.65714C53.2571 5.42857 53.4286 5.25714 53.6571 5.25714ZM60.3429 15.6571C61.0857 15.6571 61.6 15.3714 61.8857 14.8C62.1714 14.2571 62.2857 13.2857 62.3143 11.9714C62.3143 10.9429 62.2286 10.1429 62.0857 9.62857C61.9143 9.08571 61.7143 8.71428 61.4286 8.54286C61.1714 8.37143 60.8 8.28571 60.3429 8.28571H58.4C58.1714 8.28571 58 8.45714 58 8.68571V15.2571C58 15.4857 58.1714 15.6571 58.4 15.6571H60.3429Z" fill="black"/>
<path fill-rule="evenodd" clip-rule="evenodd" d="M73.6857 5.14285C75.1429 5.14285 76.3429 5.31428 77.2286 5.68571C78.0857 6.02857 78.7429 6.71428 79.2286 7.68571C79.6857 8.65714 79.9143 10.1143 79.9143 11.9714C79.9143 13.8286 79.6857 15.2857 79.2286 16.2571C78.7714 17.2286 78.0857 17.9143 77.2286 18.2571C76.3429 18.6286 75.1714 18.8 73.6857 18.8C72.2286 18.8 71.0286 18.6286 70.1429 18.2571C69.2572 17.9143 68.6 17.2286 68.1429 16.2571C67.6857 15.2857 67.4572 13.8286 67.4572 11.9714C67.4572 10.1143 67.6857 8.65714 68.1429 7.68571C68.6 6.71428 69.2857 6.02857 70.1429 5.68571C71.0286 5.31428 72.2 5.14285 73.6857 5.14285ZM75.2572 15.4857C75.6 15.2571 75.8572 14.8857 76 14.3429C76.1429 13.8 76.2 13.0286 76.2 11.9714C76.2 10.9143 76.1429 10.0857 76 9.57142C75.8572 9.02857 75.6286 8.65714 75.2572 8.45714C74.9143 8.25714 74.3714 8.17142 73.6857 8.17142C73 8.17142 72.4572 8.25714 72.1143 8.45714C71.7714 8.65714 71.5143 9.02857 71.3714 9.57142C71.2286 10.0857 71.1714 10.8857 71.1714 11.9714C71.1714 13.0286 71.2286 13.8 71.3714 14.3429C71.5143 14.8857 71.7714 15.2857 72.1143 15.4857C72.4572 15.6857 73 15.8 73.6857 15.8C74.3714 15.8 74.9143 15.6857 75.2572 15.4857Z" fill="black"/>
<path fill-rule="evenodd" clip-rule="evenodd" d="M90.8 11.8C90.6857 11.7714 90.4 11.7143 90.4 11.7143C90.4 11.7143 90.6857 11.6286 90.8 11.6C91.3428 11.4571 91.7429 11.0857 92.0286 10.6857C92.3428 10.2 92.5143 9.57143 92.5143 8.8C92.5143 6.45714 91.0286 5.25714 88.1429 5.25714H81.4286C81.2 5.25714 81.0286 5.42857 81.0286 5.65714V7.91428C81.0286 8.14286 81.2 8.31428 81.4286 8.31428H81.6857C81.9143 8.31428 82.0857 8.48571 82.0857 8.71428V18.3429C82.0857 18.5714 82.2571 18.7429 82.4857 18.7429H88.4286C89.9714 18.7429 91.1143 18.4571 91.8571 17.8857C92.6 17.3143 92.9714 16.3714 92.9714 15.0857C92.9714 14.2 92.7429 13.4571 92.3143 12.9143C91.9143 12.3714 91.4 11.9429 90.8 11.8ZM85.7714 8.68571C85.7714 8.45714 85.9429 8.28571 86.1714 8.28571H88.0857C88.3429 8.28571 88.5714 8.37143 88.7429 8.57143C88.9143 8.74286 89 9.05714 89 9.45714C89 9.8 88.9143 10.0571 88.7714 10.2857C88.6 10.5143 88.3714 10.6286 88.0857 10.6286H86.1714C85.9429 10.6286 85.7714 10.4571 85.7714 10.2286V8.68571ZM88.3143 15.6571C88.6857 15.6571 88.9714 15.5429 89.1714 15.3143C89.3714 15.0857 89.4571 14.8 89.4857 14.4C89.4857 14.0286 89.3714 13.7143 89.1714 13.4857C88.9714 13.2571 88.6857 13.1429 88.3143 13.1429H86.2C85.9714 13.1429 85.8 13.3143 85.8 13.5429V15.2571C85.8 15.4857 85.9714 15.6571 86.2 15.6571H88.3143Z" fill="black"/>
<path d="M127.343 10.4857H123.629C123.4 10.4857 123.229 10.3143 123.229 10.0857V5.65714C123.229 5.42857 123.057 5.25714 122.829 5.25714H119.914C119.686 5.25714 119.514 5.42857 119.514 5.65714V18.3143C119.514 18.5429 119.686 18.7143 119.914 18.7143H122.829C123.057 18.7143 123.229 18.5429 123.229 18.3143V13.9143C123.229 13.6857 123.4 13.5143 123.629 13.5143H127.343C127.571 13.5143 127.743 13.6857 127.743 13.9143V18.3143C127.743 18.5429 127.914 18.7143 128.143 18.7143H131.057C131.286 18.7143 131.457 18.5429 131.457 18.3143V5.65714C131.457 5.42857 131.286 5.25714 131.057 5.25714H128.143C127.914 5.25714 127.743 5.42857 127.743 5.65714V10.1143C127.743 10.3143 127.543 10.4857 127.343 10.4857Z" fill="black"/>
<path d="M134 5.65714V18.3143C134 18.5429 134.171 18.7143 134.4 18.7143H137.314C137.543 18.7143 137.714 18.5429 137.714 18.3143V5.65714C137.714 5.42857 137.543 5.25714 137.314 5.25714H134.4C134.171 5.25714 134 5.42857 134 5.65714Z" fill="black"/>
<path d="M113.486 10.4286H112.171C111.257 10.4286 110.8 10.0857 110.8 9.42857V9.37143C110.8 8.94286 110.971 8.65714 111.314 8.51428C111.629 8.37143 112.143 8.28571 112.771 8.28571C113 8.28571 115.657 8.28571 116.686 8.28571C116.914 8.28571 117.086 8.11428 117.086 7.88571V5.65714C117.086 5.42857 116.914 5.25714 116.686 5.25714H112.314C110.686 5.25714 109.429 5.6 108.571 6.25714C107.743 6.91428 107.314 7.88571 107.314 9.2V9.68571C107.314 11.0857 107.686 12.1143 108.457 12.7143C109.2 13.3429 110.371 13.6571 111.914 13.6571H112.971C113.286 13.6571 113.543 13.7429 113.743 13.8857C113.971 14.0286 114.086 14.2571 114.086 14.5429V14.6571C114.086 15.0286 113.914 15.2857 113.571 15.4571C113.257 15.6 112.743 15.6857 112.057 15.6857C111.771 15.6857 109.029 15.6857 108 15.6857C107.771 15.6857 107.6 15.8571 107.6 16.0857V18.3143C107.6 18.5429 107.771 18.7143 108 18.7143H112.543C113.629 18.6857 114.514 18.6 115.229 18.3714C115.971 18.1429 116.571 17.7429 116.971 17.1429C117.371 16.5429 117.6 15.7714 117.6 14.6857V14.0857C117.6 13.0286 117.257 12.1429 116.543 11.4571C115.8 10.7714 114.8 10.4286 113.486 10.4286Z" fill="black"/>
<path d="M34.9714 18.7143C35.2 18.7143 35.3714 18.5429 35.3714 18.3143V13.6L39.5143 5.82857C39.6571 5.57143 39.4571 5.25714 39.1714 5.25714H36.1429C36 5.25714 35.8571 5.34286 35.8 5.48571L33.6 9.82857L31.4286 5.48571C31.3714 5.34286 31.2286 5.25714 31.0857 5.25714H28.0571C27.7714 5.25714 27.5714 5.57143 27.7143 5.82857L31.8571 13.6V18.3143C31.8571 18.5429 32.0286 18.7143 32.2571 18.7143H34.9714Z" fill="black"/>
<path fill-rule="evenodd" clip-rule="evenodd" d="M0.914286 1H18.4C18.7429 1 19.0571 1.17143 19.2286 1.45714L24.5714 11.5429C24.7143 11.8286 24.7143 12.1429 24.5714 12.4L19.2 22.5143C19.0286 22.8286 18.7429 23 18.4 23H0.914286C0.4 23 0 22.5714 0 22.0857V1.91429C0 1.4 0.428571 1 0.914286 1ZM6.14286 17.6571H15.0571C15.4 17.6571 15.6857 17.4571 15.8571 17.1714L18.4 12.4C18.5429 12.1143 18.5429 11.8 18.4 11.5429L15.8571 6.77143C15.6857 6.45714 15.4 6.28571 15.0571 6.28571H6.14286C5.62857 6.28571 5.22857 6.71429 5.22857 7.2V16.7429C5.22857 17.2571 5.65714 17.6571 6.14286 17.6571Z" fill="#D8102E"/>
</svg>
